<svg width="806" height="488" viewBox="0 0 806 488" fill="none" xmlns="http://www.w3.org/2000/svg">
<path d="M153.891 488H652.11C736.966 488 806 416.138 806 327.809C806 287.132 791.333 248.358 764.698 218.628C740.697 191.836 709.034 174.605 674.576 169.359C671.154 131.821 655.257 97.0098 629.15 70.3444C600.223 40.8003 561.967 24.5293 521.429 24.5293C485.652 24.5293 451.65 37.213 424.252 60.5213C390.986 21.8825 344.204 0 293.845 0C200.646 0 124.137 76.1497 118.738 171.845C87.085 179.562 58.3746 197.676 37.012 223.609C13.1451 252.584 0 289.59 0 327.809C1.62509e-07 416.138 69.036 488 153.891 488Z" fill="#F6D05D"/>
</svg>
