<svg width="201" height="137" viewBox="0 0 201 137" fill="none" xmlns="http://www.w3.org/2000/svg">
<path d="M118.773 0C98.7856 0 81.5931 11.019 72.0202 27.0432C67.4928 24.8186 62.5608 23.2615 57.1737 23.2615C38.3057 23.2615 22.9123 38.6498 22.9123 57.5115C22.9123 59.3762 23.3394 61.1319 23.6261 62.9344C9.83538 68.9016 0 82.2596 0 98.1833C0 119.567 17.4387 137 38.8295 137H153.034C179.471 137 201 115.478 201 89.05C201 69.6606 189.285 53.2003 172.663 45.6667C168.291 19.7826 145.868 0 118.773 0ZM118.773 9.13333C142.135 9.13333 161.239 26.6022 164.026 49.163C164.129 49.9894 164.456 50.772 164.972 51.426C165.488 52.0799 166.173 52.5805 166.953 52.8734C181.515 58.4677 191.864 72.4767 191.864 89.05C191.864 110.542 174.533 127.867 153.034 127.867H38.8295C22.3763 127.867 9.13636 114.631 9.13636 98.1833C9.13636 84.8351 17.8635 73.6268 29.9073 69.8557C31.0417 69.5081 31.9963 68.7329 32.5691 67.6941C33.142 66.6554 33.2881 65.4346 32.9766 64.2901C32.3835 62.1625 32.0487 59.8791 32.0487 57.5115C32.0487 43.5858 43.2434 32.3948 57.1737 32.3948C62.3419 32.3948 67.0135 33.9294 71.021 36.6047C71.5643 36.9788 72.1822 37.2308 72.8322 37.3434C73.4823 37.456 74.149 37.4265 74.7866 37.257C75.4241 37.0875 76.0174 36.782 76.5256 36.3614C77.0338 35.9409 77.4448 35.4153 77.7305 34.8208C85.1467 19.6297 100.685 9.13333 118.773 9.13333Z" fill="black"/>
</svg>
